<?xml version="1.0" encoding="UTF-8"?>
<svg width="212" height="255" version="1.1" viewBox="0 0 56.09 67.47" xmlns="http://www.w3.org/2000/svg">
 <g fill="none" stroke="#999" stroke-width=".1">
  <rect x=".06615" y=".06615" width="10.58" height="10.58"/>
  <rect x="22.75" y=".06615" width="10.58" height="10.58"/>
  <rect x="45.44" y=".06615" width="10.58" height="10.58"/>
  <rect x="11.41" y=".06615" width="10.58" height="10.58"/>
  <rect x="34.1" y=".06615" width="10.58" height="10.58"/>
  <rect x=".06615" y="11.42" width="10.58" height="10.58"/>
  <rect x="22.75" y="11.42" width="10.58" height="10.58"/>
  <rect x="45.44" y="11.42" width="10.58" height="10.58"/>
  <rect x="11.41" y="11.42" width="10.58" height="10.58"/>
  <rect x="34.1" y="11.42" width="10.58" height="10.58"/>
  <rect x=".06615" y="22.77" width="10.58" height="10.58"/>
  <rect x="22.75" y="22.77" width="10.58" height="10.58"/>
  <rect x="45.44" y="22.77" width="10.58" height="10.58"/>
  <rect x="11.41" y="22.77" width="10.58" height="10.58"/>
  <rect x="34.1" y="22.77" width="10.58" height="10.58"/>
  <rect x=".06615" y="45.47" width="10.58" height="10.58"/>
  <rect x="22.75" y="45.47" width="10.58" height="10.58"/>
  <rect x="45.44" y="45.47" width="10.58" height="10.58"/>
  <rect x="11.41" y="45.47" width="10.58" height="10.58"/>
  <rect x="34.1" y="45.47" width="10.58" height="10.58"/>
  <rect x=".06615" y="34.12" width="10.58" height="10.58"/>
  <rect x="22.75" y="34.12" width="10.58" height="10.58"/>
  <rect x="45.44" y="34.12" width="10.58" height="10.58"/>
  <rect x="11.41" y="34.12" width="10.58" height="10.58"/>
  <rect x="34.1" y="34.12" width="10.58" height="10.58"/>
  <rect x=".06615" y="56.82" width="10.58" height="10.58"/>
  <rect x="22.75" y="56.82" width="10.58" height="10.58"/>
  <rect x="45.44" y="56.82" width="10.58" height="10.58"/>
  <rect x="11.41" y="56.82" width="10.58" height="10.58"/>
  <rect x="34.1" y="56.82" width="10.58" height="10.58"/>
 </g>
</svg>
